; NON-PLATED HOLES START AT T1
; THROUGH (PLATED) HOLES START AT T100
M48
INCH
T100C0.044111
T101C0.061111
T102C0.125984
T103C0.044139
T104C0.042000
T105C0.038000
T106C0.015748
T107C0.035000
T108C0.052000
T109C0.118000
%
T100
X022216Y023115
X018216Y023115
X023216Y024115
X019216Y024115
X015216Y023115
X017216Y024115
X020216Y024115
X012216Y023115
X008216Y023115
X011216Y023115
X013216Y024115
X007216Y024115
X023216Y023115
X019216Y023115
X010216Y024115
X006216Y024115
X025216Y024115
X017216Y023115
X024216Y024115
X020216Y023115
X022216Y024115
X018216Y024115
X013216Y023115
X015216Y024115
X007216Y023115
X010216Y023115
X006216Y023115
X025216Y023115
X012216Y024115
X008216Y024115
X024216Y023115
X011216Y024115
T101
X032216Y021002
X032216Y012115
T102
X032226Y024233
T103
X009216Y024115
X014216Y023115
X016216Y024115
X021216Y023115
X014216Y024115
X009216Y023115
X016216Y023115
X021216Y024115
T104
X029216Y004115
X030216Y004115
X020216Y017135
X020216Y015115
X031216Y004115
X020216Y012135
X020216Y020115
X016216Y017135
X016216Y015115
X016216Y012135
X016216Y020115
T105
X005216Y008115
X009216Y015115
X005216Y009115
X018216Y016115
X018216Y017115
X018216Y002115
X018216Y003115
X005216Y010115
X009216Y003115
X009216Y013115
X018216Y004115
X009216Y004115
X009216Y014115
T106
X012216Y013115
X018216Y015115
X001216Y007115
X024216Y013115
X025216Y012115
X026216Y009115
X012216Y007115
X016216Y005115
X023216Y027115
T107
X031216Y010115
X007216Y010115
X029216Y007115
X003216Y009115
X014216Y001115
X012216Y004115
X030216Y007115
X022216Y010115
X018216Y010115
X021216Y010115
X019216Y007115
X015216Y010115
X017216Y007115
X020216Y007115
X016216Y007115
X003216Y005115
X012216Y003115
X007216Y017115
X030216Y010115
X019216Y010115
X014216Y005115
X017216Y010115
X012216Y005115
X020216Y010115
X016216Y010115
X022216Y007115
X018216Y007115
X021216Y007115
X007216Y013115
X015216Y007115
X012216Y017115
X008216Y017115
X007216Y006115
T108
X028216Y027115
X025216Y027115
T109
X030745Y025484
X032216Y027115
T00
M30
