<?xml version="1.0" encoding="utf-8"?>
<!-- Generator: Adobe Illustrator 15.0.0, SVG Export Plug-In . SVG Version: 6.00 Build 0)  -->
<svg version="1.2" baseProfile="tiny" id="Layer_3" xmlns="http://www.w3.org/2000/svg" xmlns:xlink="http://www.w3.org/1999/xlink"
	 x="0px" y="0px" width="231.954px" height="275.296px" viewBox="0 0 231.954 275.296" xml:space="preserve">
<g id="board">
	<polygon fill="#24A33F" points="0.212,0.212 0.212,251.083 195.036,251.083 195.036,275.083 231.742,275.083 231.742,115.554 
		158.33,115.554 158.33,0.212 145.059,0.212 145.059,20.965 135.234,20.965 135.234,0.212 94.066,0.212 94.066,7.78 82.123,7.78 
		82.123,0.212 69.784,0.212 69.784,20.965 59.958,20.965 59.958,0.212 	"/>
</g>
<g id="silkscreen">
	
		<polygon fill="none" stroke="#FF0000" stroke-width="0.4252" stroke-linecap="round" stroke-linejoin="round" stroke-miterlimit="10" points="
		0.212,0.212 0.212,251.083 195.036,251.083 195.036,275.083 231.742,275.083 231.742,115.554 158.33,115.554 158.33,0.212 
		145.059,0.212 145.059,20.965 135.234,20.965 135.234,0.212 94.066,0.212 94.066,7.78 82.123,7.78 82.123,0.212 69.784,0.212 
		69.784,20.965 59.958,20.965 59.958,0.212 	"/>
</g>
</svg>
