; NON-PLATED HOLES START AT T1
; THROUGH (PLATED) HOLES START AT T100
M48
INCH
T1C0.086614
T100C0.044139
T101C0.032000
T102C0.038000
T103C0.035433
T104C0.052000
T105C0.118000
T106C0.043307
T107C0.061111
T108C0.060020
T109C0.035000
T110C0.042000
T111C0.030000
T112C0.044111
%
T1
X035216Y001160
X001216Y001160
X035216Y028160
X001216Y028160
T100
X021216Y023160
X009216Y023160
X014216Y024160
X016216Y023160
X009216Y024160
X021216Y024160
X014216Y023160
X016216Y024160
T101
X003210Y009141
X006210Y011141
X006210Y012141
X006210Y009141
X003210Y010141
X003210Y011141
X003210Y012141
X006210Y010141
T102
X012216Y017160
X005216Y006160
X019216Y002160
X019216Y003160
X005216Y002160
X019216Y004160
X011216Y004160
X025216Y017160
X012216Y004160
X018216Y016160
X013216Y004160
X012216Y015160
X018216Y017160
X005216Y004160
X026216Y017160
X012216Y016160
T103
X026216Y009160
X012216Y021160
X007216Y010160
X027216Y021160
X022216Y016160
X023216Y027160
X017216Y005160
X024216Y021160
X002216Y024160
X019220Y021178
X024216Y004160
X024216Y019160
X018216Y015160
X020216Y026160
X014228Y012163
X019216Y027160
X016208Y026168
X026216Y011160
X013216Y013160
X024216Y012160
T104
X025216Y027160
X028216Y027160
T105
X032216Y023798
X032216Y026160
X030366Y024979
T106
X009216Y005160
X009216Y006160
T107
X032216Y021047
X032216Y012160
T108
X004766Y020150
X001676Y018220
X005906Y016500
X004216Y019160
X002956Y016300
T109
X025216Y014160
X016216Y010160
X015216Y010160
X017216Y010160
X019216Y010160
X009216Y018160
X016216Y007160
X018216Y010160
X015216Y007160
X017216Y007160
X019216Y007160
X011216Y013160
X023216Y017160
X018216Y007160
X021216Y010160
X011216Y005160
X020216Y010160
X022216Y010160
X007216Y008160
X021216Y007160
X015216Y005160
X013216Y018160
X008216Y008160
X020216Y007160
X022216Y007160
X025216Y015160
X029216Y007160
X007216Y014160
X003216Y014160
X012216Y003160
X016216Y003160
X030216Y010160
X023216Y013160
X025216Y013160
X031216Y010160
X030216Y007160
X007216Y004160
X011216Y017160
X008216Y007160
T110
X016216Y016180
X016216Y015160
X016216Y012180
X030216Y004160
X020216Y017180
X020216Y015160
X031216Y004160
X029216Y004160
X020216Y012180
X020216Y020160
X016216Y019160
T111
X007216Y012160
X008216Y005160
X007216Y013160
X008216Y004159
T112
X012216Y024160
X008216Y024160
X019216Y023160
X006216Y024160
X022216Y023160
X018216Y023160
X024216Y024160
X023216Y024160
X015216Y023160
X017216Y024160
X020216Y024160
X012216Y023160
X008216Y023160
X006216Y023160
X013216Y024160
X024216Y023160
X011216Y024160
X007216Y024160
X023216Y023160
X010216Y024160
X025216Y024160
X017216Y023160
X020216Y023160
X019216Y024160
X022216Y024160
X018216Y024160
X013216Y023160
X015216Y024160
X011216Y023160
X007216Y023160
X010216Y023160
X025216Y023160
T00
M30
