G04 MADE WITH FRITZING*
G04 WWW.FRITZING.ORG*
G04 DOUBLE SIDED*
G04 HOLES PLATED*
G04 CONTOUR ON CENTER OF CONTOUR VECTOR*
%ASAXBY*%
%FSLAX23Y23*%
%MOIN*%
%OFA0B0*%
%SFA1.0B1.0*%
%ADD10C,0.100020*%
%ADD11C,0.100551*%
%ADD12C,0.124173*%
%ADD13C,0.085433*%
%ADD14C,0.078000*%
%ADD15C,0.085000*%
%ADD16C,0.080000*%
%ADD17C,0.088000*%
%ADD18C,0.093307*%
%ADD19C,0.096614*%
%ADD20C,0.081889*%
%ADD21C,0.081917*%
%ADD22C,0.092000*%
%ADD23C,0.148890*%
%ADD24C,0.102000*%
%ADD25C,0.180000*%
%ADD26R,0.085000X0.085000*%
%ADD27R,0.088000X0.088000*%
%ADD28R,0.092000X0.092000*%
%ADD29R,0.102000X0.102000*%
%LNMASK1*%
G90*
G70*
G54D10*
X477Y2015D03*
X422Y1916D03*
X591Y1650D03*
X296Y1630D03*
X168Y1822D03*
G54D11*
X1423Y1216D03*
G54D12*
X722Y1016D03*
G54D13*
X1222Y2116D03*
X1621Y2617D03*
X1922Y2716D03*
X2022Y2616D03*
X1922Y2118D03*
X2722Y2116D03*
G54D12*
X222Y2416D03*
G54D14*
X321Y1214D03*
X321Y1114D03*
X321Y1014D03*
X321Y914D03*
X621Y914D03*
X621Y1014D03*
X621Y1114D03*
X621Y1214D03*
X321Y1214D03*
X321Y1114D03*
X321Y1014D03*
X321Y914D03*
X621Y914D03*
X621Y1014D03*
X621Y1114D03*
X621Y1214D03*
G54D15*
X722Y816D03*
X722Y416D03*
X322Y1416D03*
X722Y1416D03*
X822Y816D03*
X822Y716D03*
G54D16*
X722Y1216D03*
X722Y1316D03*
G54D17*
X522Y616D03*
X522Y416D03*
X522Y216D03*
G54D16*
X822Y516D03*
X822Y416D03*
G54D18*
X922Y616D03*
X922Y516D03*
G54D19*
X3522Y116D03*
X122Y116D03*
X122Y2816D03*
G54D12*
X2422Y2116D03*
X2422Y1916D03*
X2422Y416D03*
G54D19*
X3522Y2816D03*
G54D17*
X1122Y416D03*
X1222Y416D03*
X1322Y416D03*
X1222Y1516D03*
X1222Y1616D03*
X1222Y1716D03*
G54D13*
X1722Y516D03*
X2622Y1116D03*
X2422Y1216D03*
X1322Y1316D03*
X2622Y916D03*
X1822Y1516D03*
X2322Y2716D03*
X2222Y1616D03*
G54D15*
X3022Y1016D03*
X3122Y1016D03*
X3022Y716D03*
X2922Y716D03*
X2522Y1316D03*
X2522Y1416D03*
X2522Y1516D03*
X2322Y1716D03*
X2322Y1316D03*
G54D17*
X2622Y1716D03*
X2522Y1716D03*
G54D20*
X2522Y2416D03*
X2422Y2416D03*
X2322Y2416D03*
X2222Y2416D03*
G54D21*
X2122Y2416D03*
G54D20*
X2022Y2416D03*
X1922Y2416D03*
X1822Y2416D03*
X1722Y2416D03*
G54D21*
X1622Y2416D03*
G54D20*
X1522Y2416D03*
G54D21*
X1422Y2416D03*
G54D20*
X1322Y2416D03*
X1222Y2416D03*
X1122Y2416D03*
X1022Y2416D03*
G54D21*
X922Y2416D03*
G54D20*
X822Y2416D03*
X722Y2416D03*
X622Y2416D03*
X622Y2316D03*
X722Y2316D03*
X822Y2316D03*
G54D21*
X922Y2316D03*
G54D20*
X1022Y2316D03*
X1122Y2316D03*
X1222Y2316D03*
X1322Y2316D03*
G54D21*
X1422Y2316D03*
G54D20*
X1522Y2316D03*
G54D21*
X1622Y2316D03*
G54D20*
X1722Y2316D03*
X1822Y2316D03*
X1922Y2316D03*
X2022Y2316D03*
G54D21*
X2122Y2316D03*
G54D20*
X2222Y2316D03*
X2322Y2316D03*
X2422Y2316D03*
X2522Y2316D03*
G54D15*
X1522Y516D03*
X1122Y516D03*
X1622Y316D03*
X1222Y316D03*
G54D22*
X2922Y416D03*
X3022Y416D03*
X3122Y416D03*
G54D15*
X2222Y1016D03*
X2222Y716D03*
X2122Y1016D03*
X2122Y716D03*
X2022Y1016D03*
X2022Y716D03*
X1922Y1016D03*
X1922Y716D03*
X1822Y1016D03*
X1822Y716D03*
X1722Y1016D03*
X1722Y716D03*
X1622Y1016D03*
X1622Y716D03*
X1522Y1016D03*
X1522Y716D03*
G54D17*
X1822Y1716D03*
X1822Y1616D03*
G54D22*
X2022Y1516D03*
X2022Y1218D03*
X1622Y1516D03*
X1622Y1218D03*
X1622Y1916D03*
X1622Y1618D03*
X2022Y2016D03*
X2022Y1718D03*
G54D23*
X3222Y2105D03*
X3222Y1216D03*
G54D24*
X2522Y2716D03*
X2822Y2716D03*
G54D15*
X1122Y1716D03*
X1122Y1316D03*
X922Y1816D03*
X1322Y1816D03*
G54D17*
X1922Y416D03*
X1922Y316D03*
X1922Y216D03*
G54D25*
X3222Y2380D03*
X3222Y2616D03*
X3037Y2498D03*
X3222Y2380D03*
X3222Y2616D03*
X3037Y2498D03*
G54D26*
X822Y816D03*
G54D27*
X522Y616D03*
G54D26*
X3022Y1016D03*
X3022Y716D03*
G54D28*
X2922Y416D03*
G54D26*
X2222Y1016D03*
G54D27*
X1822Y1716D03*
G54D28*
X2022Y1517D03*
X1622Y1517D03*
X1622Y1917D03*
X2022Y2017D03*
G54D29*
X2522Y2716D03*
G54D27*
X1922Y416D03*
G04 End of Mask1*
M02*