G04 MADE WITH FRITZING*
G04 WWW.FRITZING.ORG*
G04 DOUBLE SIDED*
G04 HOLES PLATED*
G04 CONTOUR ON CENTER OF CONTOUR VECTOR*
%ASAXBY*%
%FSLAX23Y23*%
%MOIN*%
%OFA0B0*%
%SFA1.0B1.0*%
%ADD10C,0.075433*%
%ADD11C,0.170000*%
%ADD12C,0.078000*%
%ADD13C,0.075000*%
%ADD14C,0.071889*%
%ADD15C,0.071917*%
%ADD16C,0.082000*%
%ADD17C,0.138889*%
%ADD18R,0.075000X0.075000*%
%ADD19R,0.082000X0.082000*%
%ADD20R,0.078000X0.078000*%
%ADD21C,0.016000*%
%LNCOPPER1*%
G90*
G70*
G54D10*
X799Y833D03*
G54D11*
X1898Y2297D03*
X1898Y2533D03*
X1713Y2415D03*
X1898Y2297D03*
X1898Y2533D03*
X1713Y2415D03*
G54D12*
X1298Y2333D03*
X1198Y2333D03*
X1098Y2333D03*
X698Y2033D03*
X798Y2033D03*
X898Y2033D03*
G54D13*
X1698Y633D03*
X1698Y733D03*
X1698Y433D03*
X1698Y333D03*
X1798Y1633D03*
X1798Y1733D03*
X1798Y1833D03*
X1598Y1633D03*
X1598Y2033D03*
G54D14*
X498Y1333D03*
X598Y1333D03*
X698Y1333D03*
X798Y1333D03*
G54D15*
X898Y1333D03*
G54D14*
X998Y1333D03*
X1098Y1333D03*
X1198Y1333D03*
X1298Y1333D03*
G54D15*
X1398Y1333D03*
G54D14*
X1498Y1333D03*
G54D15*
X1598Y1333D03*
G54D14*
X1698Y1333D03*
X1798Y1333D03*
X1898Y1333D03*
X1998Y1333D03*
G54D15*
X2098Y1333D03*
G54D14*
X2198Y1333D03*
X2298Y1333D03*
X2398Y1333D03*
X2398Y1433D03*
X2298Y1433D03*
X2198Y1433D03*
G54D15*
X2098Y1433D03*
G54D14*
X1998Y1433D03*
X1898Y1433D03*
X1798Y1433D03*
X1698Y1433D03*
G54D15*
X1598Y1433D03*
G54D14*
X1498Y1433D03*
G54D15*
X1398Y1433D03*
G54D14*
X1298Y1433D03*
X1198Y1433D03*
X1098Y1433D03*
X998Y1433D03*
G54D15*
X898Y1433D03*
G54D14*
X798Y1433D03*
X698Y1433D03*
X598Y1433D03*
X498Y1433D03*
G54D12*
X1998Y1733D03*
X1998Y1833D03*
G54D13*
X1198Y1733D03*
X1198Y2133D03*
X1098Y1633D03*
X1098Y2033D03*
G54D16*
X1898Y533D03*
X1898Y633D03*
X1898Y733D03*
G54D13*
X1198Y933D03*
X1498Y933D03*
X1198Y833D03*
X1498Y833D03*
X1198Y733D03*
X1498Y733D03*
X1198Y633D03*
X1498Y633D03*
X1198Y533D03*
X1498Y533D03*
X1198Y433D03*
X1498Y433D03*
X1198Y333D03*
X1498Y333D03*
X1198Y233D03*
X1498Y233D03*
G54D12*
X798Y633D03*
X798Y733D03*
G54D16*
X598Y733D03*
X598Y1031D03*
X998Y633D03*
X998Y931D03*
X798Y133D03*
X798Y431D03*
X998Y133D03*
X998Y431D03*
G54D17*
X2398Y2633D03*
X2398Y1744D03*
G54D13*
X398Y2233D03*
X798Y2233D03*
X498Y2333D03*
X898Y2333D03*
G54D12*
X698Y1733D03*
X798Y1733D03*
X898Y1733D03*
G54D10*
X1698Y933D03*
X298Y1433D03*
G54D18*
X1698Y633D03*
X1698Y433D03*
G54D19*
X1898Y533D03*
G54D18*
X1198Y933D03*
G54D20*
X798Y633D03*
G54D19*
X598Y732D03*
X998Y632D03*
X798Y132D03*
X998Y132D03*
G54D20*
X698Y1733D03*
G54D21*
X497Y1132D02*
X1498Y1133D01*
D02*
X297Y1332D02*
X497Y1132D01*
D02*
X298Y1410D02*
X297Y1332D01*
D02*
X1498Y1133D02*
X1682Y949D01*
G04 End of Copper1*
M02*