; NON-PLATED HOLES START AT T1
; THROUGH (PLATED) HOLES START AT T100
M48
INCH
T1C0.157480
T100C0.118000
T101C0.035433
T102C0.044111
T103C0.061111
T104C0.044139
T105C0.042000
T106C0.038000
T107C0.035000
%
T1
X002857Y018804
X004641Y003024
X019391Y020789
T100
X018980Y025329
X018980Y022967
X017130Y024148
T101
X002980Y014329
X016980Y009329
X007990Y008325
T102
X009980Y014329
X012980Y014329
X004980Y013329
X023980Y013329
X019980Y013329
X006980Y014329
X022980Y013329
X005980Y014329
X016980Y013329
X018980Y014329
X021980Y014329
X017980Y014329
X009980Y013329
X012980Y013329
X014980Y014329
X006980Y013329
X005980Y013329
X011980Y014329
X007980Y014329
X010980Y014329
X018980Y013329
X021980Y013329
X017980Y013329
X004980Y014329
X023980Y014329
X019980Y014329
X022980Y014329
X014980Y013329
X016980Y014329
X011980Y013329
X007980Y013329
X010980Y013329
T103
X023980Y026329
X023980Y017443
T104
X015980Y014329
X020980Y013329
X013980Y014329
X008980Y013329
X020980Y014329
X015980Y013329
X008980Y014329
X013980Y013329
T105
X009980Y009309
X007980Y001329
X018980Y005329
X009980Y004309
X009980Y006329
X018980Y006329
X009980Y001329
X018980Y007329
X005980Y007329
X007980Y004309
X005980Y010309
T106
X006980Y017329
X007980Y007329
X007980Y017329
X008980Y020329
X008980Y017329
X019980Y017329
X010980Y023329
X019980Y018329
X007980Y006329
X011980Y023329
X006980Y020329
X012980Y023329
X007980Y020329
T107
X011980Y003329
X014980Y008329
X007980Y022329
X014980Y005329
X015980Y016329
X011980Y008329
X015980Y020329
X017980Y017329
X016980Y006329
X014980Y002329
X011980Y005329
X016980Y003329
X011980Y002329
X014980Y007329
X011980Y017329
X011980Y021329
X014980Y004329
X011980Y007329
X017980Y016329
X011980Y004329
X014980Y009329
X008980Y023329
X014980Y006329
X003980Y022329
X011980Y009329
X010980Y016329
X017980Y018329
X016980Y007329
X014980Y003329
X010980Y020329
X004980Y023329
X011980Y006329
X016980Y004329
T00
M30
