; NON-PLATED HOLES START AT T1
; THROUGH (PLATED) HOLES START AT T100
M48
INCH
T1C0.086614
T100C0.061111
T101C0.125984
T102C0.044139
T103C0.042000
T104C0.038000
T105C0.035000
T106C0.052000
T107C0.118000
T108C0.035433
T109C0.044111
%
T1
X035216Y028160
X001216Y028160
X001216Y001160
X035216Y001160
T100
X032216Y012160
X032216Y021047
T101
X032226Y024278
T102
X016216Y024160
X021216Y023160
X009216Y023160
X014216Y024160
X016216Y023160
X021216Y024160
X009216Y024160
X014216Y023160
T103
X030216Y004160
X020216Y017180
X020216Y015160
X031216Y004160
X029216Y004160
X020216Y012180
X020216Y020160
X016216Y019160
X016216Y016180
X016216Y015160
X016216Y012180
T104
X009216Y014160
X005216Y008160
X009216Y015160
X005216Y009160
X018216Y016160
X018216Y017160
X018216Y002160
X018216Y003160
X005216Y010160
X009216Y003160
X009216Y013160
X018216Y004160
X009216Y004160
T105
X015216Y010160
X017216Y007160
X020216Y007160
X016216Y007160
X003216Y005160
X012216Y003160
X007216Y017160
X029216Y007160
X030216Y010160
X014216Y001160
X017216Y010160
X019216Y007160
X012216Y005160
X020216Y010160
X016216Y010160
X022216Y007160
X018216Y007160
X021216Y007160
X007216Y013160
X015216Y007160
X012216Y017160
X008216Y017160
X007216Y006160
X031216Y010160
X007216Y010160
X003216Y009160
X012216Y004160
X030216Y007160
X019216Y010160
X014216Y005160
X022216Y010160
X018216Y010160
X021216Y010160
T106
X028216Y027160
X025216Y027160
T107
X030745Y025529
X032216Y027160
T108
X024216Y004160
X012216Y013160
X024216Y019160
X018216Y015160
X026216Y009160
X024216Y016160
X020216Y026160
X019216Y027160
X016208Y026168
X025216Y011160
X024216Y012160
X012216Y021160
X024216Y002160
X004216Y020160
X027216Y021160
X012216Y007160
X023216Y027160
X016216Y005160
X024216Y021160
X019220Y021178
X024216Y014160
X004233Y019152
T109
X012216Y023160
X008216Y023160
X011216Y023160
X013216Y024160
X024216Y023160
X007216Y024160
X023216Y023160
X010216Y024160
X006216Y024160
X025216Y024160
X017216Y023160
X020216Y023160
X019216Y024160
X022216Y024160
X018216Y024160
X013216Y023160
X015216Y024160
X007216Y023160
X010216Y023160
X006216Y023160
X025216Y023160
X012216Y024160
X008216Y024160
X011216Y024160
X019216Y023160
X022216Y023160
X018216Y023160
X024216Y024160
X023216Y024160
X015216Y023160
X017216Y024160
X020216Y024160
T00
M30
