G04 MADE WITH FRITZING*
G04 WWW.FRITZING.ORG*
G04 DOUBLE SIDED*
G04 HOLES PLATED*
G04 CONTOUR ON CENTER OF CONTOUR VECTOR*
%ASAXBY*%
%FSLAX23Y23*%
%MOIN*%
%OFA0B0*%
%SFA1.0B1.0*%
%ADD10C,0.162000*%
%ADD11C,0.075000*%
%ADD12C,0.078000*%
%ADD13C,0.071889*%
%ADD14C,0.071917*%
%ADD15C,0.082000*%
%ADD16C,0.138889*%
%ADD17C,0.092000*%
%ADD18C,0.039370*%
%ADD19R,0.075000X0.075000*%
%ADD20R,0.082000X0.082000*%
%ADD21R,0.078000X0.078000*%
%ADD22R,0.092000X0.092000*%
%ADD23C,0.024000*%
%LNCOPPER0*%
G90*
G70*
G54D10*
X3223Y2423D03*
X3222Y2712D03*
X3075Y2548D03*
G54D11*
X3022Y1012D03*
X3122Y1012D03*
X3022Y712D03*
X2922Y712D03*
X1222Y512D03*
X1222Y412D03*
X1222Y312D03*
X1422Y512D03*
X1422Y112D03*
G54D12*
X922Y412D03*
X922Y312D03*
G54D13*
X2522Y2412D03*
X2422Y2412D03*
X2322Y2412D03*
X2222Y2412D03*
G54D14*
X2122Y2412D03*
G54D13*
X2022Y2412D03*
X1922Y2412D03*
X1822Y2412D03*
X1722Y2412D03*
G54D14*
X1622Y2412D03*
G54D13*
X1522Y2412D03*
G54D14*
X1422Y2412D03*
G54D13*
X1322Y2412D03*
X1222Y2412D03*
X1122Y2412D03*
X1022Y2412D03*
G54D14*
X922Y2412D03*
G54D13*
X822Y2412D03*
X722Y2412D03*
X622Y2412D03*
X622Y2312D03*
X722Y2312D03*
X822Y2312D03*
G54D14*
X922Y2312D03*
G54D13*
X1022Y2312D03*
X1122Y2312D03*
X1222Y2312D03*
X1322Y2312D03*
G54D14*
X1422Y2312D03*
G54D13*
X1522Y2312D03*
G54D14*
X1622Y2312D03*
G54D13*
X1722Y2312D03*
X1822Y2312D03*
X1922Y2312D03*
X2022Y2312D03*
G54D14*
X2122Y2312D03*
G54D13*
X2222Y2312D03*
X2322Y2312D03*
X2422Y2312D03*
X2522Y2312D03*
G54D11*
X722Y612D03*
X722Y1012D03*
X322Y512D03*
X322Y912D03*
G54D15*
X2922Y412D03*
X3022Y412D03*
X3122Y412D03*
G54D11*
X2222Y1012D03*
X2222Y712D03*
X2122Y1012D03*
X2122Y712D03*
X2022Y1012D03*
X2022Y712D03*
X1922Y1012D03*
X1922Y712D03*
X1822Y1012D03*
X1822Y712D03*
X1722Y1012D03*
X1722Y712D03*
X1622Y1012D03*
X1622Y712D03*
X1522Y1012D03*
X1522Y712D03*
G54D12*
X1822Y1712D03*
X1822Y1612D03*
G54D15*
X2022Y1512D03*
X2022Y1214D03*
X1622Y1512D03*
X1622Y1214D03*
X1622Y2012D03*
X1622Y1714D03*
X2022Y2012D03*
X2022Y1714D03*
G54D16*
X3222Y2100D03*
X3222Y1212D03*
G54D17*
X2522Y2712D03*
X2822Y2712D03*
G54D11*
X722Y1712D03*
X722Y1312D03*
X822Y1712D03*
X1222Y1712D03*
G54D12*
X1822Y412D03*
X1822Y312D03*
X1822Y212D03*
X522Y1012D03*
X522Y912D03*
X522Y812D03*
X922Y1312D03*
X922Y1412D03*
X922Y1512D03*
G54D18*
X1622Y512D03*
X2522Y1212D03*
X2422Y1312D03*
X1222Y1312D03*
X2622Y912D03*
X1822Y1512D03*
X122Y712D03*
X2322Y2712D03*
X1222Y712D03*
G54D19*
X3022Y1012D03*
X3022Y712D03*
G54D20*
X2922Y412D03*
G54D19*
X2222Y1012D03*
G54D21*
X1822Y1712D03*
G54D20*
X2022Y1513D03*
X1622Y1513D03*
X1622Y2013D03*
X2022Y2013D03*
G54D22*
X2522Y2712D03*
G54D21*
X1822Y412D03*
G54D23*
X2021Y1612D02*
X2021Y1544D01*
D02*
X1852Y1612D02*
X2021Y1612D01*
D02*
X2121Y1512D02*
X2121Y1111D01*
D02*
X2121Y1111D02*
X2042Y1032D01*
D02*
X2054Y1512D02*
X2121Y1512D01*
D02*
X1820Y1211D02*
X1821Y1040D01*
D02*
X1654Y1213D02*
X1820Y1211D01*
D02*
X1921Y1211D02*
X1922Y1040D01*
D02*
X1990Y1213D02*
X1921Y1211D01*
D02*
X1522Y1211D02*
X1701Y1032D01*
D02*
X1522Y1512D02*
X1522Y1211D01*
D02*
X1590Y1512D02*
X1522Y1512D01*
D02*
X1422Y1113D02*
X1421Y1812D01*
D02*
X1421Y1812D02*
X1599Y1989D01*
D02*
X1502Y1032D02*
X1422Y1113D01*
D02*
X1522Y1812D02*
X1522Y1512D01*
D02*
X1522Y1512D02*
X1590Y1512D01*
D02*
X1821Y1742D02*
X1820Y1812D01*
D02*
X1820Y1812D02*
X1522Y1812D01*
D02*
X2121Y2113D02*
X2044Y2034D01*
D02*
X3180Y2101D02*
X2121Y2113D01*
D02*
X1822Y683D02*
X1822Y442D01*
D02*
X2201Y691D02*
X1843Y333D01*
D02*
X1021Y1512D02*
X952Y1512D01*
D02*
X1201Y1691D02*
X1021Y1512D01*
D02*
X793Y1712D02*
X750Y1712D01*
D02*
X693Y1012D02*
X552Y1012D01*
D02*
X822Y1112D02*
X721Y1112D01*
D02*
X521Y1312D02*
X521Y1511D01*
D02*
X821Y912D02*
X822Y1112D01*
D02*
X721Y1112D02*
X521Y1312D01*
D02*
X552Y811D02*
X722Y811D01*
D02*
X722Y811D02*
X821Y912D01*
D02*
X521Y1511D02*
X701Y1691D01*
D02*
X350Y912D02*
X492Y912D01*
D02*
X622Y510D02*
X702Y591D01*
D02*
X350Y511D02*
X622Y510D01*
D02*
X2922Y2712D02*
X2859Y2712D01*
D02*
X3027Y2600D02*
X2922Y2712D01*
D02*
X1421Y211D02*
X1242Y391D01*
D02*
X1421Y140D02*
X1421Y211D01*
D02*
X1193Y312D02*
X952Y312D01*
D02*
X1020Y512D02*
X1193Y512D01*
D02*
X943Y433D02*
X1020Y512D01*
D02*
X1222Y1811D02*
X1522Y2111D01*
D02*
X1621Y2112D02*
X1798Y2288D01*
D02*
X1222Y1740D02*
X1222Y1811D01*
D02*
X1522Y2111D02*
X1621Y2112D01*
D02*
X1021Y2213D02*
X322Y1511D01*
D02*
X322Y1511D02*
X322Y940D01*
D02*
X1621Y2213D02*
X1021Y2213D01*
D02*
X1698Y2288D02*
X1621Y2213D01*
D02*
X521Y2512D02*
X1621Y2512D01*
D02*
X1621Y2512D02*
X1698Y2435D01*
D02*
X121Y2112D02*
X521Y2512D01*
D02*
X122Y731D02*
X121Y2112D01*
D02*
X2723Y2213D02*
X2420Y2213D01*
D02*
X2420Y2213D02*
X2345Y2288D01*
D02*
X3024Y2500D02*
X2723Y2213D01*
D02*
X2322Y2693D02*
X2322Y2445D01*
D02*
X2341Y2712D02*
X2485Y2712D01*
D02*
X3175Y2659D02*
X3122Y2601D01*
D02*
X3222Y2142D02*
X3222Y2349D01*
D02*
X3322Y1111D02*
X3323Y212D01*
D02*
X3323Y212D02*
X3021Y211D01*
D02*
X3251Y1182D02*
X3322Y1111D01*
D02*
X3021Y211D02*
X2922Y312D01*
D02*
X2922Y312D02*
X2922Y379D01*
D02*
X2922Y683D02*
X2922Y444D01*
D02*
X1922Y983D02*
X1922Y740D01*
D02*
X1822Y811D02*
X1021Y811D01*
D02*
X1021Y811D02*
X1021Y1311D01*
D02*
X1822Y740D02*
X1822Y811D01*
D02*
X1021Y1311D02*
X943Y1390D01*
D02*
X1422Y912D02*
X1621Y912D01*
D02*
X1621Y912D02*
X1622Y983D01*
D02*
X1222Y1112D02*
X1422Y912D01*
D02*
X1222Y1293D02*
X1222Y1112D01*
D02*
X1893Y1012D02*
X1850Y1012D01*
D02*
X2408Y1298D02*
X2142Y1032D01*
D02*
X2421Y1212D02*
X2242Y1032D01*
D02*
X2503Y1212D02*
X2421Y1212D01*
D02*
X3122Y444D02*
X3122Y983D01*
D02*
X2922Y912D02*
X3021Y811D01*
D02*
X3021Y811D02*
X3122Y811D01*
D02*
X3122Y811D02*
X3122Y983D01*
D02*
X2641Y912D02*
X2922Y912D01*
D02*
X421Y711D02*
X141Y712D01*
D02*
X500Y790D02*
X421Y711D01*
D02*
X1723Y212D02*
X1622Y313D01*
D02*
X1622Y313D02*
X1622Y493D01*
D02*
X1792Y212D02*
X1723Y212D01*
D02*
X1401Y532D02*
X1235Y698D01*
D02*
X1644Y1691D02*
X1723Y1612D01*
D02*
X1723Y1612D02*
X1792Y1612D01*
D02*
X1822Y1581D02*
X1822Y1531D01*
D02*
X1990Y1713D02*
X1852Y1712D01*
D02*
X1990Y2012D02*
X1654Y2012D01*
D02*
X3422Y1911D02*
X3422Y2512D01*
D02*
X3021Y1510D02*
X3422Y1911D01*
D02*
X3422Y2512D02*
X3271Y2662D01*
D02*
X3022Y1040D02*
X3021Y1510D01*
D02*
X3022Y683D02*
X3022Y444D01*
D02*
X3222Y1011D02*
X3222Y312D01*
D02*
X3122Y1111D02*
X3222Y1011D01*
D02*
X3022Y1111D02*
X3122Y1111D01*
D02*
X3022Y1040D02*
X3022Y1111D01*
D02*
X3022Y312D02*
X3022Y379D01*
D02*
X3222Y312D02*
X3022Y312D01*
D02*
X1921Y811D02*
X2222Y811D01*
D02*
X2222Y811D02*
X2422Y1011D01*
D02*
X2422Y1011D02*
X2993Y1012D01*
D02*
X1921Y740D02*
X1921Y811D01*
D02*
X2522Y911D02*
X2321Y712D01*
D02*
X2321Y712D02*
X2250Y712D01*
D02*
X2603Y911D02*
X2522Y911D01*
D02*
X742Y632D02*
X923Y812D01*
D02*
X923Y812D02*
X1822Y811D01*
D02*
X1822Y811D02*
X1822Y740D01*
D02*
X892Y1312D02*
X750Y1312D01*
G04 End of Copper0*
M02*