G04 MADE WITH FRITZING*
G04 WWW.FRITZING.ORG*
G04 DOUBLE SIDED*
G04 HOLES PLATED*
G04 CONTOUR ON CENTER OF CONTOUR VECTOR*
%ASAXBY*%
%FSLAX23Y23*%
%MOIN*%
%OFA0B0*%
%SFA1.0B1.0*%
%ADD10C,0.114173*%
%ADD11C,0.075433*%
%ADD12C,0.078000*%
%ADD13C,0.162000*%
%ADD14C,0.075000*%
%ADD15C,0.071889*%
%ADD16C,0.071917*%
%ADD17C,0.082000*%
%ADD18C,0.138889*%
%ADD19C,0.092000*%
%ADD20R,0.275590X0.157480*%
%ADD21R,0.075000X0.075000*%
%ADD22R,0.082000X0.082000*%
%ADD23R,0.078000X0.078000*%
%ADD24R,0.092000X0.092000*%
%ADD25C,0.024000*%
%LNCOPPER1*%
G90*
G70*
G54D10*
X2422Y2116D03*
X2422Y1616D03*
G54D11*
X2422Y416D03*
G54D12*
X522Y1016D03*
X522Y916D03*
X522Y816D03*
X922Y1316D03*
X922Y1416D03*
X922Y1516D03*
G54D11*
X1622Y516D03*
X2522Y1116D03*
X2422Y1216D03*
X1222Y1316D03*
X2622Y916D03*
X1822Y1516D03*
X2322Y2716D03*
X1222Y716D03*
G54D13*
X3223Y2428D03*
X3222Y2716D03*
X3075Y2553D03*
X3223Y2428D03*
X3222Y2716D03*
X3075Y2553D03*
G54D14*
X3022Y1016D03*
X3122Y1016D03*
X3022Y716D03*
X2922Y716D03*
X1222Y516D03*
X1222Y416D03*
X1222Y316D03*
X1422Y516D03*
X1422Y116D03*
G54D12*
X922Y416D03*
X922Y316D03*
G54D15*
X2522Y2416D03*
X2422Y2416D03*
X2322Y2416D03*
X2222Y2416D03*
G54D16*
X2122Y2416D03*
G54D15*
X2022Y2416D03*
X1922Y2416D03*
X1822Y2416D03*
X1722Y2416D03*
G54D16*
X1622Y2416D03*
G54D15*
X1522Y2416D03*
G54D16*
X1422Y2416D03*
G54D15*
X1322Y2416D03*
X1222Y2416D03*
X1122Y2416D03*
X1022Y2416D03*
G54D16*
X922Y2416D03*
G54D15*
X822Y2416D03*
X722Y2416D03*
X622Y2416D03*
X622Y2316D03*
X722Y2316D03*
X822Y2316D03*
G54D16*
X922Y2316D03*
G54D15*
X1022Y2316D03*
X1122Y2316D03*
X1222Y2316D03*
X1322Y2316D03*
G54D16*
X1422Y2316D03*
G54D15*
X1522Y2316D03*
G54D16*
X1622Y2316D03*
G54D15*
X1722Y2316D03*
X1822Y2316D03*
X1922Y2316D03*
X2022Y2316D03*
G54D16*
X2122Y2316D03*
G54D15*
X2222Y2316D03*
X2322Y2316D03*
X2422Y2316D03*
X2522Y2316D03*
G54D14*
X722Y616D03*
X722Y1016D03*
X322Y516D03*
X322Y916D03*
G54D17*
X2922Y416D03*
X3022Y416D03*
X3122Y416D03*
G54D14*
X2222Y1016D03*
X2222Y716D03*
X2122Y1016D03*
X2122Y716D03*
X2022Y1016D03*
X2022Y716D03*
X1922Y1016D03*
X1922Y716D03*
X1822Y1016D03*
X1822Y716D03*
X1722Y1016D03*
X1722Y716D03*
X1622Y1016D03*
X1622Y716D03*
X1522Y1016D03*
X1522Y716D03*
G54D12*
X1822Y1716D03*
X1822Y1616D03*
G54D17*
X2022Y1516D03*
X2022Y1218D03*
X1622Y1516D03*
X1622Y1218D03*
X1622Y1916D03*
X1622Y1618D03*
X2022Y2016D03*
X2022Y1718D03*
G54D18*
X3222Y2105D03*
X3222Y1216D03*
G54D19*
X2522Y2716D03*
X2822Y2716D03*
G54D14*
X722Y1716D03*
X722Y1316D03*
X822Y1716D03*
X1222Y1716D03*
G54D12*
X1822Y416D03*
X1822Y316D03*
X1822Y216D03*
G54D11*
X1222Y2116D03*
X1621Y2617D03*
X1922Y2716D03*
X2022Y2616D03*
X1922Y2118D03*
X2722Y2116D03*
G54D10*
X423Y1915D03*
X2422Y1416D03*
X2422Y1916D03*
G54D11*
X2422Y216D03*
G54D10*
X422Y2016D03*
G54D20*
X2422Y1516D03*
X422Y1816D03*
X2422Y2016D03*
X2422Y316D03*
G54D21*
X3022Y1016D03*
X3022Y716D03*
G54D22*
X2922Y416D03*
G54D21*
X2222Y1016D03*
G54D23*
X1822Y1716D03*
G54D22*
X2022Y1517D03*
X1622Y1517D03*
X1622Y1917D03*
X2022Y2017D03*
G54D24*
X2522Y2716D03*
G54D23*
X1822Y416D03*
G54D25*
X2422Y1587D02*
X2422Y1589D01*
D02*
X2422Y2087D02*
X2422Y2089D01*
D02*
X2422Y387D02*
X2422Y389D01*
D02*
X1893Y716D02*
X1850Y716D01*
D02*
X2620Y2016D02*
X2701Y2096D01*
D02*
X2622Y945D02*
X2620Y2016D01*
D02*
X1322Y1416D02*
X1322Y1815D01*
D02*
X1322Y1815D02*
X1121Y2016D01*
D02*
X1121Y2016D02*
X722Y2016D01*
D02*
X722Y2016D02*
X422Y2317D01*
D02*
X422Y2317D02*
X422Y2515D01*
D02*
X422Y2515D02*
X521Y2617D01*
D02*
X521Y2617D02*
X1592Y2617D01*
D02*
X1242Y1336D02*
X1322Y1416D01*
D02*
X1924Y724D02*
X1922Y716D01*
D02*
X1421Y1117D02*
X1421Y617D01*
D02*
X1893Y2118D02*
X1620Y2118D01*
D02*
X1523Y2017D02*
X1522Y1216D01*
D02*
X1620Y2118D02*
X1523Y2017D01*
D02*
X1522Y1216D02*
X1421Y1117D01*
D02*
X1421Y617D02*
X1522Y617D01*
D02*
X1522Y617D02*
X1601Y537D01*
D02*
X2220Y2617D02*
X2123Y2718D01*
D02*
X2123Y2718D02*
X1950Y2716D01*
D02*
X2722Y2617D02*
X2220Y2617D01*
D02*
X2921Y2418D02*
X2722Y2617D01*
D02*
X2821Y1816D02*
X2921Y1916D01*
D02*
X2921Y1916D02*
X2921Y2418D01*
D02*
X2821Y716D02*
X2821Y1816D01*
D02*
X2722Y617D02*
X2821Y716D01*
D02*
X2522Y617D02*
X2722Y617D01*
D02*
X2422Y1187D02*
X2423Y716D01*
D02*
X2423Y716D02*
X2522Y617D01*
D02*
X2123Y2517D02*
X2042Y2596D01*
D02*
X2622Y2517D02*
X2123Y2517D01*
D02*
X2821Y2315D02*
X2622Y2517D01*
D02*
X2522Y816D02*
X2622Y716D01*
D02*
X2722Y815D02*
X2722Y1916D01*
D02*
X2821Y2015D02*
X2821Y2315D01*
D02*
X2722Y1916D02*
X2821Y2015D01*
D02*
X2522Y1087D02*
X2522Y816D01*
D02*
X2622Y716D02*
X2722Y815D01*
D02*
X1423Y1917D02*
X1242Y2096D01*
D02*
X1421Y1315D02*
X1423Y1917D01*
D02*
X1222Y745D02*
X1221Y1115D01*
D02*
X1221Y1115D02*
X1421Y1315D01*
D02*
X423Y1886D02*
X423Y1889D01*
D02*
X2422Y1443D02*
X2422Y1445D01*
G04 End of Copper1*
M02*