G04 MADE WITH FRITZING*
G04 WWW.FRITZING.ORG*
G04 DOUBLE SIDED*
G04 HOLES PLATED*
G04 CONTOUR ON CENTER OF CONTOUR VECTOR*
%ASAXBY*%
%FSLAX23Y23*%
%MOIN*%
%OFA0B0*%
%SFA1.0B1.0*%
%ADD10C,0.075433*%
%ADD11C,0.170000*%
%ADD12C,0.078000*%
%ADD13C,0.075000*%
%ADD14C,0.071889*%
%ADD15C,0.071917*%
%ADD16C,0.082000*%
%ADD17C,0.138889*%
%ADD18R,0.075000X0.075000*%
%ADD19R,0.082000X0.082000*%
%ADD20R,0.078000X0.078000*%
%ADD21C,0.024000*%
%ADD22C,0.016000*%
%LNCOPPER0*%
G90*
G70*
G54D10*
X799Y833D03*
G54D11*
X1799Y2375D03*
X1799Y2611D03*
X1614Y2493D03*
G54D12*
X1298Y2333D03*
X1198Y2333D03*
X1098Y2333D03*
X698Y2033D03*
X798Y2033D03*
X898Y2033D03*
G54D13*
X1698Y633D03*
X1698Y733D03*
X1698Y433D03*
X1698Y333D03*
X1798Y1633D03*
X1798Y1733D03*
X1798Y1833D03*
X1598Y1633D03*
X1598Y2033D03*
G54D14*
X498Y1333D03*
X598Y1333D03*
X698Y1333D03*
X798Y1333D03*
G54D15*
X898Y1333D03*
G54D14*
X998Y1333D03*
X1098Y1333D03*
X1198Y1333D03*
X1298Y1333D03*
G54D15*
X1398Y1333D03*
G54D14*
X1498Y1333D03*
G54D15*
X1598Y1333D03*
G54D14*
X1698Y1333D03*
X1798Y1333D03*
X1898Y1333D03*
X1998Y1333D03*
G54D15*
X2098Y1333D03*
G54D14*
X2198Y1333D03*
X2298Y1333D03*
X2398Y1333D03*
X2398Y1433D03*
X2298Y1433D03*
X2198Y1433D03*
G54D15*
X2098Y1433D03*
G54D14*
X1998Y1433D03*
X1898Y1433D03*
X1798Y1433D03*
X1698Y1433D03*
G54D15*
X1598Y1433D03*
G54D14*
X1498Y1433D03*
G54D15*
X1398Y1433D03*
G54D14*
X1298Y1433D03*
X1198Y1433D03*
X1098Y1433D03*
X998Y1433D03*
G54D15*
X898Y1433D03*
G54D14*
X798Y1433D03*
X698Y1433D03*
X598Y1433D03*
X498Y1433D03*
G54D12*
X1998Y1733D03*
X1998Y1833D03*
G54D13*
X1198Y1733D03*
X1198Y2133D03*
X1098Y1633D03*
X1098Y2033D03*
G54D16*
X1898Y533D03*
X1898Y633D03*
X1898Y733D03*
G54D13*
X1198Y933D03*
X1498Y933D03*
X1198Y833D03*
X1498Y833D03*
X1198Y733D03*
X1498Y733D03*
X1198Y633D03*
X1498Y633D03*
X1198Y533D03*
X1498Y533D03*
X1198Y433D03*
X1498Y433D03*
X1198Y333D03*
X1498Y333D03*
X1198Y233D03*
X1498Y233D03*
G54D12*
X798Y633D03*
X798Y733D03*
G54D16*
X598Y733D03*
X598Y1031D03*
X998Y633D03*
X998Y931D03*
X798Y133D03*
X798Y431D03*
X998Y133D03*
X998Y431D03*
G54D17*
X2398Y2633D03*
X2398Y1744D03*
G54D13*
X398Y2233D03*
X798Y2233D03*
X498Y2333D03*
X898Y2333D03*
G54D12*
X698Y1733D03*
X798Y1733D03*
X898Y1733D03*
G54D10*
X1698Y933D03*
X298Y1433D03*
G54D18*
X1698Y633D03*
X1698Y433D03*
G54D19*
X1898Y533D03*
G54D18*
X1198Y933D03*
G54D20*
X798Y633D03*
G54D19*
X598Y732D03*
X998Y632D03*
X798Y132D03*
X998Y132D03*
G54D20*
X698Y1733D03*
G54D21*
X799Y804D02*
X798Y763D01*
G54D22*
D02*
X1182Y949D02*
X998Y1132D01*
D02*
X998Y1132D02*
X998Y1305D01*
D02*
X823Y733D02*
X1175Y733D01*
D02*
X998Y458D02*
X998Y606D01*
D02*
X1175Y433D02*
X1025Y431D01*
D02*
X625Y733D02*
X773Y733D01*
D02*
X598Y706D02*
X599Y632D01*
D02*
X599Y632D02*
X779Y450D01*
D02*
X971Y133D02*
X825Y133D01*
D02*
X1199Y134D02*
X1198Y210D01*
D02*
X1025Y133D02*
X1199Y134D01*
D02*
X1521Y633D02*
X1675Y633D01*
D02*
X1698Y610D02*
X1698Y456D01*
D02*
X1871Y633D02*
X1721Y633D01*
D02*
X1721Y733D02*
X1871Y733D01*
D02*
X1700Y2611D02*
X1652Y2545D01*
D02*
X1735Y2611D02*
X1700Y2611D01*
D02*
X1199Y134D02*
X1198Y210D01*
D02*
X2699Y1032D02*
X1799Y132D01*
D02*
X1799Y132D02*
X1199Y134D01*
D02*
X2699Y1733D02*
X2699Y1032D01*
D02*
X2099Y2333D02*
X2699Y1733D01*
D02*
X1899Y2334D02*
X2099Y2333D01*
D02*
X1859Y2351D02*
X1899Y2334D01*
D02*
X1498Y610D02*
X1498Y556D01*
D02*
X2599Y1032D02*
X2599Y1533D01*
D02*
X2599Y1533D02*
X2423Y1718D01*
D02*
X2099Y532D02*
X2599Y1032D01*
D02*
X1925Y533D02*
X2099Y532D01*
D02*
X1497Y1532D02*
X1498Y1461D01*
D02*
X1582Y1617D02*
X1497Y1532D01*
D02*
X1697Y1733D02*
X1775Y1733D01*
D02*
X1597Y1832D02*
X1697Y1733D01*
D02*
X1598Y2010D02*
X1597Y1832D01*
D02*
X1821Y1833D02*
X1973Y1833D01*
D02*
X1898Y1632D02*
X1821Y1633D01*
D02*
X1981Y1716D02*
X1898Y1632D01*
D02*
X2499Y1533D02*
X2199Y1533D01*
D02*
X2098Y633D02*
X2498Y1033D01*
D02*
X2197Y1834D02*
X2098Y1933D01*
D02*
X2199Y1533D02*
X2197Y1834D01*
D02*
X1798Y1933D02*
X1699Y2032D01*
D02*
X1600Y2434D02*
X1599Y2430D01*
D02*
X1600Y2334D02*
X1600Y2434D01*
D02*
X1700Y2231D02*
X1600Y2334D01*
D02*
X1925Y633D02*
X2098Y633D01*
D02*
X1699Y2032D02*
X1700Y2231D01*
D02*
X2498Y1033D02*
X2499Y1533D01*
D02*
X2098Y1933D02*
X1798Y1933D01*
D02*
X898Y2058D02*
X898Y2310D01*
D02*
X698Y2058D02*
X698Y2133D01*
D02*
X698Y2133D02*
X782Y2217D01*
D02*
X1299Y2234D02*
X1214Y2149D01*
D02*
X1298Y2308D02*
X1299Y2234D01*
D02*
X1199Y2234D02*
X1198Y2308D01*
D02*
X1098Y2234D02*
X1199Y2234D01*
D02*
X1098Y2056D02*
X1098Y2234D01*
D02*
X998Y1534D02*
X897Y1632D01*
D02*
X897Y1632D02*
X898Y1708D01*
D02*
X998Y1461D02*
X998Y1534D01*
D02*
X398Y2134D02*
X299Y2134D01*
D02*
X498Y1734D02*
X498Y2032D01*
D02*
X299Y2134D02*
X300Y2334D01*
D02*
X398Y1634D02*
X498Y1734D01*
D02*
X198Y1634D02*
X398Y1634D01*
D02*
X498Y2032D02*
X398Y2134D01*
D02*
X300Y2334D02*
X498Y2532D01*
D02*
X96Y1532D02*
X198Y1634D01*
D02*
X398Y1034D02*
X96Y1332D01*
D02*
X572Y1031D02*
X398Y1034D01*
D02*
X1599Y2534D02*
X1592Y2554D01*
D02*
X96Y1332D02*
X96Y1532D01*
D02*
X898Y1305D02*
X899Y1034D01*
D02*
X899Y1034D02*
X980Y950D01*
D02*
X899Y1034D02*
X898Y1305D01*
D02*
X625Y1031D02*
X899Y1034D01*
D02*
X1698Y910D02*
X1698Y756D01*
D02*
X470Y1433D02*
X321Y1433D01*
D02*
X198Y1332D02*
X470Y1333D01*
D02*
X598Y2033D02*
X598Y1733D01*
D02*
X598Y1733D02*
X398Y1532D01*
D02*
X398Y1532D02*
X198Y1532D01*
D02*
X414Y2217D02*
X598Y2033D01*
D02*
X198Y1532D02*
X198Y1332D01*
D02*
X414Y2249D02*
X482Y2317D01*
D02*
X998Y1732D02*
X999Y1833D01*
D02*
X999Y1833D02*
X798Y1833D01*
D02*
X798Y1833D02*
X798Y2008D01*
D02*
X1082Y1649D02*
X998Y1732D01*
D02*
X1114Y1649D02*
X1182Y1717D01*
D02*
X999Y2433D02*
X598Y2433D01*
D02*
X598Y2433D02*
X514Y2349D01*
D02*
X1081Y2350D02*
X999Y2433D01*
D02*
X1299Y1534D02*
X1298Y1461D01*
D02*
X1399Y1632D02*
X1299Y1534D01*
D02*
X1399Y1832D02*
X1399Y1632D01*
D02*
X1299Y1933D02*
X1399Y1832D01*
D02*
X1199Y1933D02*
X1299Y1933D01*
D02*
X1114Y2017D02*
X1199Y1933D01*
D02*
X798Y1833D02*
X798Y2008D01*
D02*
X698Y1758D02*
X698Y1833D01*
D02*
X698Y1833D02*
X798Y1833D01*
D02*
X598Y1634D02*
X798Y1633D01*
D02*
X798Y1633D02*
X798Y1708D01*
D02*
X497Y1532D02*
X598Y1634D01*
D02*
X498Y1461D02*
X497Y1533D01*
D02*
X1299Y1833D02*
X1099Y1833D01*
D02*
X1299Y1632D02*
X1299Y1833D01*
D02*
X1099Y1833D02*
X915Y2016D01*
D02*
X1199Y1534D02*
X1299Y1632D01*
D02*
X1198Y1461D02*
X1199Y1534D01*
D02*
X1675Y933D02*
X1521Y933D01*
D02*
X1897Y434D02*
X1898Y506D01*
D02*
X1721Y333D02*
X1798Y332D01*
D02*
X1798Y332D02*
X1897Y434D01*
D02*
X1298Y1034D02*
X1097Y1234D01*
D02*
X1097Y1234D02*
X1098Y1305D01*
D02*
X1298Y833D02*
X1298Y1034D01*
D02*
X1221Y833D02*
X1298Y833D01*
D02*
X1399Y1034D02*
X1199Y1234D01*
D02*
X1199Y1234D02*
X1198Y1305D01*
D02*
X1399Y434D02*
X1399Y1034D01*
D02*
X1298Y332D02*
X1399Y434D01*
D02*
X1221Y333D02*
X1298Y332D01*
D02*
X1098Y1610D02*
X1098Y1461D01*
D02*
X2099Y2333D02*
X2373Y2607D01*
D02*
X1859Y2351D02*
X1899Y2334D01*
D02*
X1899Y2334D02*
X2099Y2333D01*
D02*
X971Y633D02*
X823Y633D01*
D02*
X498Y2532D02*
X1599Y2534D01*
G04 End of Copper0*
M02*